M48
; DRILL file {KiCad (5.1.2)-1} date 16.06.2019 17:54:49
; FORMAT={-:-/ absolute / inch / decimal}
; #@! TF.CreationDate,2019-06-16T17:54:49+02:00
; #@! TF.GenerationSoftware,Kicad,Pcbnew,(5.1.2)-1
; #@! TF.FileFunction,Plated,1,2,PTH
FMAT,2
INCH
T1C0.0157
T2C0.0315
T3C0.0350
T4C0.0394
T5C0.0709
T6C0.1260
%
G90
G05
T1
X2.32Y-2.28
X2.5Y-2.7
X2.52Y-2.78
X2.67Y-2.64
X2.94Y-2.1
X2.94Y-2.22
X2.98Y-2.75
X3.02Y-2.37
X3.06Y-2.92
X3.06Y-3.04
X3.1Y-2.12
X3.1Y-2.24
X3.25Y-2.68
X3.32Y-2.62
X3.32Y-2.5
X3.36Y-2.66
X3.38Y-2.88
X3.38Y-3.1
X3.47Y-2.88
X3.61Y-2.25
X3.67Y-2.22
X3.7Y-3.28
X3.73Y-2.86
X3.74Y-2.05
X3.85Y-2.58
X3.96Y-3.2
X4.0Y-2.35
X4.02Y-2.84
X4.05Y-1.99
X4.32Y-1.9
X4.35Y-2.79
X4.35Y-2.89
X4.37Y-1.99
X4.41Y-3.05
X4.42Y-2.2
X4.64Y-3.35
X4.65Y-2.45
X4.68Y-2.79
X4.69Y-1.9
X4.69Y-3.24
X4.7Y-2.35
T2
X3.3813Y-1.69
X3.46Y-1.69
X3.515Y-2.425
X3.515Y-2.5038
X3.515Y-2.5825
X3.515Y-2.6613
X3.515Y-2.74
T3
X4.7899Y-2.9496
X4.7899Y-3.0299
X4.7899Y-3.1102
X4.7899Y-3.1906
X4.86Y-2.9094
X4.86Y-2.9898
X4.86Y-3.0701
X4.86Y-3.1504
X2.155Y-2.5096
X2.155Y-2.5899
X2.155Y-2.6702
X2.155Y-2.7506
X2.2251Y-2.4694
X2.2251Y-2.5498
X2.2251Y-2.6301
X2.2251Y-2.7104
X4.7899Y-2.0702
X4.7899Y-2.1505
X4.7899Y-2.2308
X4.7899Y-2.3111
X4.86Y-2.03
X4.86Y-2.1103
X4.86Y-2.1906
X4.86Y-2.2709
T4
X2.72Y-2.38
X2.75Y-1.98
X3.36Y-2.32
X4.45Y-3.13
X4.51Y-1.65
X4.51Y-2.24
T5
X4.825Y-2.7319
X4.825Y-3.3681
X2.19Y-2.2919
X2.19Y-2.9281
X4.825Y-1.8524
X4.825Y-2.4887
T6
X1.9685Y-3.6417
X5.0197Y-1.5748
X5.0197Y-3.6417
X1.9685Y-1.5748
T0
M30
